<mxfile host="app.diagrams.net" agent="Mozilla/5.0 (Macintosh; Intel Mac OS X 10.15; rv:131.0) Gecko/20100101 Firefox/131.0" version="24.8.3">
  <diagram name="Page-1" id="bDgfQEggFynguPkO4ypH">
    <mxGraphModel dx="902" dy="500" grid="1" gridSize="10" guides="1" tooltips="1" connect="1" arrows="1" fold="1" page="1" pageScale="1" pageWidth="827" pageHeight="1169" math="1" shadow="0">
      <root>
        <mxCell id="0" />
        <mxCell id="1" parent="0" />
        <mxCell id="CMSXOrC1Qovgn56q17M1-4" value="" style="endArrow=blockThin;html=1;rounded=0;curved=0;endFill=1;fontFamily=Helvetica;" parent="1" edge="1">
          <mxGeometry width="50" height="50" relative="1" as="geometry">
            <mxPoint x="402" y="280" as="sourcePoint" />
            <mxPoint x="530" y="280" as="targetPoint" />
          </mxGeometry>
        </mxCell>
        <mxCell id="CMSXOrC1Qovgn56q17M1-7" value="$$1$$" style="edgeLabel;html=1;align=center;verticalAlign=middle;resizable=0;points=[];rounded=0;fontFamily=Helvetica;" parent="CMSXOrC1Qovgn56q17M1-4" vertex="1" connectable="0">
          <mxGeometry x="-0.2807" y="2" relative="1" as="geometry">
            <mxPoint x="14" y="2" as="offset" />
          </mxGeometry>
        </mxCell>
        <mxCell id="CMSXOrC1Qovgn56q17M1-3" value="" style="outlineConnect=0;fontColor=#232F3E;gradientColor=none;fillColor=#232F3D;strokeColor=none;dashed=0;verticalLabelPosition=bottom;verticalAlign=top;align=center;html=1;fontSize=12;fontStyle=0;aspect=fixed;pointerEvents=1;shape=mxgraph.aws4.user;fillStyle=solid;shadow=0;rounded=0;fontFamily=Helvetica;" parent="1" vertex="1">
          <mxGeometry x="330" y="260" width="98" height="98" as="geometry" />
        </mxCell>
        <mxCell id="CMSXOrC1Qovgn56q17M1-10" value="" style="endArrow=none;html=1;rounded=0;exitX=0.736;exitY=0.408;exitDx=0;exitDy=0;exitPerimeter=0;fontFamily=Helvetica;" parent="1" source="CMSXOrC1Qovgn56q17M1-3" edge="1">
          <mxGeometry width="50" height="50" relative="1" as="geometry">
            <mxPoint x="430" y="300" as="sourcePoint" />
            <mxPoint x="530" y="300" as="targetPoint" />
          </mxGeometry>
        </mxCell>
        <mxCell id="CMSXOrC1Qovgn56q17M1-12" value="" style="endArrow=blockThin;html=1;rounded=0;endFill=1;fontFamily=Helvetica;" parent="1" edge="1">
          <mxGeometry width="50" height="50" relative="1" as="geometry">
            <mxPoint x="361" y="300" as="sourcePoint" />
            <mxPoint x="230" y="300" as="targetPoint" />
          </mxGeometry>
        </mxCell>
        <mxCell id="CMSXOrC1Qovgn56q17M1-15" value="$$2$$" style="edgeLabel;html=1;align=center;verticalAlign=middle;resizable=0;points=[];rounded=0;fontFamily=Helvetica;" parent="CMSXOrC1Qovgn56q17M1-12" vertex="1" connectable="0">
          <mxGeometry x="0.1101" y="-1" relative="1" as="geometry">
            <mxPoint x="-8" as="offset" />
          </mxGeometry>
        </mxCell>
        <mxCell id="CMSXOrC1Qovgn56q17M1-13" value="" style="endArrow=blockThin;html=1;rounded=0;endFill=1;fontFamily=Helvetica;" parent="1" edge="1">
          <mxGeometry width="50" height="50" relative="1" as="geometry">
            <mxPoint x="400" y="320" as="sourcePoint" />
            <mxPoint x="530" y="320" as="targetPoint" />
          </mxGeometry>
        </mxCell>
        <mxCell id="CMSXOrC1Qovgn56q17M1-16" value="$$3$$" style="edgeLabel;html=1;align=center;verticalAlign=middle;resizable=0;points=[];rounded=0;fontFamily=Helvetica;" parent="CMSXOrC1Qovgn56q17M1-13" vertex="1" connectable="0">
          <mxGeometry x="0.2088" relative="1" as="geometry">
            <mxPoint as="offset" />
          </mxGeometry>
        </mxCell>
        <mxCell id="CMSXOrC1Qovgn56q17M1-14" value="" style="endArrow=none;html=1;rounded=0;fontFamily=Helvetica;" parent="1" edge="1">
          <mxGeometry width="50" height="50" relative="1" as="geometry">
            <mxPoint x="230" y="320" as="sourcePoint" />
            <mxPoint x="354.23" y="320" as="targetPoint" />
          </mxGeometry>
        </mxCell>
        <mxCell id="CMSXOrC1Qovgn56q17M1-18" value="" style="endArrow=blockThin;html=1;rounded=0;endFill=1;fontFamily=Helvetica;" parent="1" edge="1">
          <mxGeometry width="50" height="50" relative="1" as="geometry">
            <mxPoint x="530" y="340" as="sourcePoint" />
            <mxPoint x="420" y="340" as="targetPoint" />
          </mxGeometry>
        </mxCell>
        <mxCell id="CMSXOrC1Qovgn56q17M1-20" value="$$4$$" style="edgeLabel;html=1;align=center;verticalAlign=middle;resizable=0;points=[];fontFamily=Helvetica;" parent="CMSXOrC1Qovgn56q17M1-18" vertex="1" connectable="0">
          <mxGeometry x="0.0171" y="1" relative="1" as="geometry">
            <mxPoint as="offset" />
          </mxGeometry>
        </mxCell>
        <mxCell id="CMSXOrC1Qovgn56q17M1-27" value="&lt;div&gt;$$\text{Identity Provider (IdP)}$$&lt;/div&gt;&lt;div&gt;$$\textit{Home Organisation}$$&lt;br&gt;&lt;/div&gt;" style="text;html=1;align=center;verticalAlign=middle;whiteSpace=wrap;rounded=0;" parent="1" vertex="1">
          <mxGeometry x="67.89" y="370" width="200" height="50" as="geometry" />
        </mxCell>
        <mxCell id="CMSXOrC1Qovgn56q17M1-28" value="&lt;div&gt;$$\text{Service Provider (SP)}$$&lt;/div&gt;&lt;div&gt;$$\textit{Resource Organisation}$$&lt;br&gt;&lt;/div&gt;" style="text;html=1;align=center;verticalAlign=middle;whiteSpace=wrap;rounded=0;" parent="1" vertex="1">
          <mxGeometry x="486.90999999999997" y="370" width="200" height="50" as="geometry" />
        </mxCell>
        <mxCell id="CMSXOrC1Qovgn56q17M1-30" value="&lt;div&gt;$$\text{User}$$&lt;/div&gt;&lt;div&gt;$$\textit{Web Browser}$$&lt;br&gt;&lt;/div&gt;" style="text;html=1;align=center;verticalAlign=middle;whiteSpace=wrap;rounded=0;" parent="1" vertex="1">
          <mxGeometry x="279" y="210" width="200" height="50" as="geometry" />
        </mxCell>
        <mxCell id="QHOG9FVJiGcemUXWgg4h-6" value="" style="group" vertex="1" connectable="0" parent="1">
          <mxGeometry x="119.23999999999995" y="260" width="97.30000000000004" height="98" as="geometry" />
        </mxCell>
        <mxCell id="CMSXOrC1Qovgn56q17M1-1" value="" style="outlineConnect=0;fontColor=#232F3E;gradientColor=none;fillColor=#232F3D;strokeColor=none;dashed=0;verticalLabelPosition=bottom;verticalAlign=top;align=center;html=1;fontSize=12;fontStyle=0;aspect=fixed;pointerEvents=1;shape=mxgraph.aws4.traditional_server;rounded=0;fontFamily=Helvetica;" parent="QHOG9FVJiGcemUXWgg4h-6" vertex="1">
          <mxGeometry x="40.76000000000005" width="56.54" height="98" as="geometry" />
        </mxCell>
        <mxCell id="QHOG9FVJiGcemUXWgg4h-5" value="" style="html=1;verticalLabelPosition=bottom;align=center;labelBackgroundColor=#ffffff;verticalAlign=top;strokeWidth=2;strokeColor=#000000;shadow=0;dashed=0;shape=mxgraph.ios7.icons.home;" vertex="1" parent="QHOG9FVJiGcemUXWgg4h-6">
          <mxGeometry y="58.829999999999984" width="35.76" height="38" as="geometry" />
        </mxCell>
        <mxCell id="QHOG9FVJiGcemUXWgg4h-7" value="" style="group" vertex="1" connectable="0" parent="1">
          <mxGeometry x="540" y="260" width="93.80999999999995" height="98" as="geometry" />
        </mxCell>
        <mxCell id="CMSXOrC1Qovgn56q17M1-2" value="" style="outlineConnect=0;fontColor=#232F3E;gradientColor=none;fillColor=#232F3D;strokeColor=none;dashed=0;verticalLabelPosition=bottom;verticalAlign=top;align=center;html=1;fontSize=12;fontStyle=0;aspect=fixed;pointerEvents=1;shape=mxgraph.aws4.traditional_server;rounded=0;fontFamily=Helvetica;" parent="QHOG9FVJiGcemUXWgg4h-7" vertex="1">
          <mxGeometry width="56.54" height="98" as="geometry" />
        </mxCell>
        <mxCell id="QHOG9FVJiGcemUXWgg4h-4" value="" style="html=1;verticalLabelPosition=bottom;align=center;labelBackgroundColor=#ffffff;verticalAlign=top;strokeWidth=2;strokeColor=#000000;shadow=0;dashed=0;shape=mxgraph.ios7.icons.locked;" vertex="1" parent="QHOG9FVJiGcemUXWgg4h-7">
          <mxGeometry x="61.539999999999964" y="57.660000000000025" width="32.27" height="40.34" as="geometry" />
        </mxCell>
      </root>
    </mxGraphModel>
  </diagram>
</mxfile>
